
<?xml version="1.0" encoding="utf-8"?>
<!-- Generator: Adobe Illustrator 16.0.0, SVG Export Plug-In . SVG Version: 6.00 Build 0)  -->
<!DOCTYPE svg PUBLIC "-//W3C//DTD SVG 1.1//EN" "http://www.w3.org/Graphics/SVG/1.1/DTD/svg11.dtd">
<svg version="1.1" id="Layer_2" xmlns="http://www.w3.org/2000/svg" xmlns:xlink="http://www.w3.org/1999/xlink" x="0px" y="0px"
	 width="50px" height="50px" viewBox="0 0 173 173" enable-background="new 0 0 173 173" xml:space="preserve">
<polygon fill="#FFFFFF" points="58.553,144.734 150.227,115.35 120.728,23.714 29.055,53.098 "/>
<path fill="#A1DCE5" d="M120.728,23.714L113.094,0H17c-1.673,0-3.285,0.251-4.813,0.702l16.867,52.396L120.728,23.714z"/>
<path fill="#A1DCE5" d="M58.553,144.734L67.652,173H156c4.379,0,8.358-1.67,11.372-4.389l-17.145-53.262L58.553,144.734z"/>
<path fill="#0E2773" d="M150.227,115.35L173,108.051V17c0-3.382-1-6.526-2.703-9.174l-49.57,15.889L150.227,115.35z"/>
<path fill="#FFFFFF" d="M156,0h-42.906l7.634,23.714l49.57-15.889C167.273,3.123,162.006,0,156,0z"/>
<path fill="#008FE0" d="M167.372,168.611C170.82,165.5,173,161.01,173,156v-47.949l-22.773,7.299L167.372,168.611z"/>
<path fill="#2C0852" d="M29.055,53.098L0,62.41V156c0,2.504,0.555,4.873,1.526,7.012l57.027-18.277L29.055,53.098z"/>
<path fill="#008FE0" d="M12.188,0.702C5.145,2.779,0,9.284,0,17v45.41l29.055-9.313L12.188,0.702z"/>
<path fill="#BF1736" d="M1.526,163.012C4.199,168.898,10.115,173,17,173h50.652l-9.099-28.266L1.526,163.012z"/>
<g>
	<path d="M50.356,97.854c3.147,1.611,7.982,3.224,12.972,3.224c5.372,0,8.212-2.226,8.212-5.603c0-3.224-2.456-5.066-8.673-7.292
		c-8.596-2.993-14.199-7.752-14.199-15.273c0-8.826,7.368-15.58,19.572-15.58c5.833,0,10.131,1.228,13.201,2.609l-2.609,9.44
		c-2.072-0.998-5.757-2.456-10.822-2.456s-7.521,2.303-7.521,4.988c0,3.301,2.916,4.759,9.594,7.292
		c9.134,3.377,13.432,8.136,13.432,15.427c0,8.673-6.678,16.041-20.877,16.041c-5.909,0-11.742-1.535-14.659-3.146L50.356,97.854z"
		/>
	<path d="M129.408,108.445c-2.149,1.074-6.984,2.226-13.278,2.226c-17.883,0-27.093-11.129-27.093-25.865
		c0-17.652,12.587-27.477,28.244-27.477c6.063,0,10.669,1.228,12.741,2.302l-2.38,9.287c-2.379-0.998-5.68-1.919-9.824-1.919
		c-9.287,0-16.501,5.604-16.501,17.116c0,10.361,6.14,16.885,16.578,16.885c3.53,0,7.444-0.768,9.747-1.688L129.408,108.445z"/>
</g>
</svg>
